HIERARCHY
ROOT joint_Root
{
	OFFSET 0.0 0.0 0.0
	CHANNELS 6 Xposition Yposition Zposition Zrotation Xrotation Yrotation 
	JOINT Hips
	{
		OFFSET -17.1583 93.1646 452.98
		CHANNELS 6 Xposition Yposition Zposition Zrotation Xrotation Yrotation 
		JOINT Spine
		{
			OFFSET 15.7357 0.0 0.0
			CHANNELS 6 Xposition Yposition Zposition Zrotation Xrotation Yrotation 
			JOINT Chest
			{
				OFFSET 8.98455 -0.406207 0.0
				CHANNELS 6 Xposition Yposition Zposition Zrotation Xrotation Yrotation 
				JOINT Neck
				{
					OFFSET 16.3773 0.0 0.0
					CHANNELS 6 Xposition Yposition Zposition Zrotation Xrotation Yrotation 
					JOINT Head
					{
						OFFSET 6.45672 0.0 0.0
						CHANNELS 6 Xposition Yposition Zposition Zrotation Xrotation Yrotation 
						End Site
						{
							OFFSET 0.0 0.0 0.0
						}
					}
				}
				JOINT Shoulder_L
				{
					OFFSET 12.9942 -0.242716 4.98039
					CHANNELS 6 Xposition Yposition Zposition Zrotation Xrotation Yrotation 
					JOINT UpperArm_L
					{
						OFFSET 5.34809 0.0 0.0
						CHANNELS 6 Xposition Yposition Zposition Zrotation Xrotation Yrotation 
						JOINT LowerArm_L
						{
							OFFSET 24.3286 1.87007e-05 0.0
							CHANNELS 6 Xposition Yposition Zposition Zrotation Xrotation Yrotation 
							JOINT Hand_L
							{
								OFFSET 22.2916 0.0 0.0
								CHANNELS 6 Xposition Yposition Zposition Zrotation Xrotation Yrotation 
								End Site
								{
									OFFSET 0.0 0.0 0.0
								}
							}
						}
					}
				}
				JOINT Shoulder_R
				{
					OFFSET 12.9945 -0.242716 -4.98039
					CHANNELS 6 Xposition Yposition Zposition Zrotation Xrotation Yrotation 
					JOINT UpperArm_R
					{
						OFFSET -5.34813 0.0 0.0
						CHANNELS 6 Xposition Yposition Zposition Zrotation Xrotation Yrotation 
						JOINT LowerArm_R
						{
							OFFSET -24.3289 0.000322201 0.0
							CHANNELS 6 Xposition Yposition Zposition Zrotation Xrotation Yrotation 
							JOINT Hand_R
							{
								OFFSET -22.2915 -0.000108084 0.0
								CHANNELS 6 Xposition Yposition Zposition Zrotation Xrotation Yrotation 
								End Site
								{
									OFFSET 0.0 0.0 0.0
								}
							}
						}
					}
				}
			}
		}
		JOINT UpperLeg_L
		{
			OFFSET -2.19248 -6.46944 0.0
			CHANNELS 6 Xposition Yposition Zposition Zrotation Xrotation Yrotation 
			JOINT LowerLeg_L
			{
				OFFSET 39.0811 0.0 -1.23785e-05
				CHANNELS 6 Xposition Yposition Zposition Zrotation Xrotation Yrotation 
				JOINT Foot_L
				{
					OFFSET 40.9854 0.0 -1.26872e-05
					CHANNELS 6 Xposition Yposition Zposition Zrotation Xrotation Yrotation 
					JOINT Toes_L
					{
						OFFSET 11.7543 0.0 0.0
						CHANNELS 6 Xposition Yposition Zposition Zrotation Xrotation Yrotation 
						End Site
						{
							OFFSET 0.0 0.0 0.0
						}
					}
				}
			}
		}
		JOINT UpperLeg_R
		{
			OFFSET -2.19251 6.46944 0.0
			CHANNELS 6 Xposition Yposition Zposition Zrotation Xrotation Yrotation 
			JOINT LowerLeg_R
			{
				OFFSET -39.0811 -0.00228153 -0.0401928
				CHANNELS 6 Xposition Yposition Zposition Zrotation Xrotation Yrotation 
				JOINT Foot_R
				{
					OFFSET -40.9854 0.0 0.0
					CHANNELS 6 Xposition Yposition Zposition Zrotation Xrotation Yrotation 
					JOINT Toes_R
					{
						OFFSET -11.7543 0.0 0.0
						CHANNELS 6 Xposition Yposition Zposition Zrotation Xrotation Yrotation 
						End Site
						{
							OFFSET 0.0 0.0 0.0
						}
					}
				}
			}
		}
	}
}
MOTION
Frames:	4
Frame Time:	0.0333333
0.000000 0.000000 0.000000 0.000000 0.000000 -0.000000 1.145810 92.793800 3.035480 89.133300 -2.177060 1.093370 15.735700 0.000005 -0.000001 79.675800 87.530500 -72.361800 8.984550 -0.406207 -0.000000 -2.766060 -1.555020 14.592600 16.377300 -0.000001 -0.000001 0.315379 1.543450 6.326510 6.456720 -0.000001 -0.000000 4.129020 2.481500 23.636800 12.994200 -0.242716 4.980390 -86.771400 -6.675210 -64.113300 5.348090 -0.000007 -0.000001 -42.863700 -56.782300 -86.274700 24.328600 0.000019 0.000005 1.280270 25.516100 -2.969810 22.291600 -0.000001 0.000005 45.226600 4.407810 18.098600 12.994500 -0.242716 -4.980390 89.106000 3.143480 -74.115400 -5.348130 -0.000001 -0.000004 -62.427400 6.988030 -4.184220 -24.328900 0.000322 -0.000009 2.075570 7.551450 -15.425000 -22.291500 -0.000108 -0.000004 6.146570 5.228470 1.995160 -2.192480 -6.469440 -0.000000 -175.615000 -10.147300 2.614800 39.081100 -0.000007 -0.000012 0.041294 -0.163630 14.163800 40.985400 -0.000006 -0.000013 0.973536 13.319600 -70.368600 11.754300 -0.000000 0.000003 -0.000864 0.181081 -9.231390 -2.192510 6.469440 -0.000001 174.971000 2.798560 -176.687000 -39.081100 -0.002282 -0.040193 0.010463 -0.035587 11.323700 -40.985400 0.000008 0.000006 -7.524810 5.584690 -68.632800 -11.754300 -0.000006 -0.000006 -0.011722 0.283751 -5.041620
0.000000 0.000000 0.000000 0.000000 0.000000 -0.000000 1.156130 92.794600 3.028720 89.126700 -2.086180 1.078410 15.735700 0.000005 -0.000001 79.495900 87.521500 -72.207500 8.984550 -0.406207 -0.000000 -2.750710 -1.570270 14.541100 16.377300 -0.000001 -0.000001 0.304551 1.500030 6.389900 6.456720 -0.000001 -0.000000 4.155720 2.512710 23.548400 12.994200 -0.242716 4.980390 -86.809300 -6.600060 -64.126100 5.348090 -0.000007 -0.000001 -43.371800 -56.834400 -86.642400 24.328600 0.000019 0.000005 1.270680 25.423200 -2.957620 22.291600 -0.000001 0.000005 45.290300 4.412140 18.029200 12.994500 -0.242716 -4.980390 89.109900 3.119200 -74.064600 -5.348130 -0.000001 -0.000004 -62.397900 6.833410 -4.146100 -24.328900 0.000322 -0.000009 2.062260 7.593950 -15.249300 -22.291500 -0.000108 -0.000004 6.206950 5.226540 2.044730 -2.192480 -6.469440 -0.000000 -175.610000 -10.148100 2.550950 39.081100 -0.000007 -0.000012 0.041461 -0.163601 14.221200 40.985400 -0.000006 -0.000013 0.995130 13.397300 -70.415200 11.754300 -0.000000 0.000003 -0.001109 0.184575 -9.089410 -2.192510 6.469440 -0.000001 174.957000 2.907980 -176.671000 -39.081100 -0.002282 -0.040193 0.009951 -0.033163 11.279400 -40.985400 0.000008 0.000006 -7.570770 5.628770 -68.592800 -11.754300 -0.000006 -0.000006 -0.011792 0.284244 -5.021450
0.000000 0.000000 0.000000 0.000000 0.000000 -0.000000 1.173550 92.796200 3.013990 89.116600 -2.055270 1.020030 15.735700 0.000005 -0.000001 79.897000 87.529400 -72.638900 8.984550 -0.406207 -0.000000 -2.763220 -1.531420 14.481300 16.377300 -0.000001 -0.000001 0.280741 1.451300 6.413320 6.456720 -0.000001 -0.000000 4.255360 2.511630 23.534100 12.994200 -0.242716 4.980390 -86.844300 -6.531640 -64.141600 5.348090 -0.000007 -0.000001 -43.824700 -56.893800 -86.991100 24.328600 0.000019 0.000005 1.297540 25.348900 -3.028290 22.291600 -0.000001 0.000005 45.338000 4.409450 18.072100 12.994500 -0.242716 -4.980390 89.101000 3.147510 -74.050600 -5.348130 -0.000001 -0.000004 -62.360000 6.654290 -4.048460 -24.328900 0.000322 -0.000009 2.056550 7.652060 -15.099500 -22.291500 -0.000108 -0.000004 6.148250 5.227350 2.024020 -2.192480 -6.469440 -0.000000 -175.612000 -10.193500 2.463700 39.081100 -0.000007 -0.000012 0.041162 -0.162123 14.246400 40.985400 -0.000006 -0.000013 1.018620 13.467100 -70.394900 11.754300 -0.000000 0.000003 -0.000993 0.182937 -9.156000 -2.192510 6.469440 -0.000001 174.958000 2.921880 -176.730000 -39.081100 -0.002282 -0.040193 0.009611 -0.031500 11.264800 -40.985400 0.000008 0.000006 -7.687030 5.621220 -68.528600 -11.754300 -0.000006 -0.000006 -0.011312 0.280863 -5.159890
0.000000 0.000000 0.000000 0.000000 0.000000 -0.000000 1.188840 92.800000 3.024690 89.129500 -1.998440 1.032700 15.735700 0.000005 -0.000001 80.020900 87.513500 -72.803900 8.984550 -0.406207 -0.000000 -2.731840 -1.520660 14.399500 16.377300 -0.000001 -0.000001 0.336100 1.456810 6.393630 6.456720 -0.000001 -0.000000 4.242530 2.472580 23.527700 12.994200 -0.242716 4.980390 -86.866100 -6.487140 -64.144600 5.348090 -0.000007 -0.000001 -43.956700 -56.933500 -87.095600 24.328600 0.000019 0.000005 1.291220 25.176700 -3.032790 22.291600 -0.000001 0.000005 45.221400 4.406440 18.120400 12.994500 -0.242716 -4.980390 89.099200 3.153080 -74.047200 -5.348130 -0.000001 -0.000004 -62.408200 6.572530 -3.913370 -24.328900 0.000322 -0.000009 2.066920 7.732160 -15.023000 -22.291500 -0.000108 -0.000004 6.194070 5.225010 2.084180 -2.192480 -6.469440 -0.000000 -175.639000 -10.124800 2.504420 39.081100 -0.000007 -0.000012 0.041128 -0.162583 14.196300 40.985400 -0.000006 -0.000013 1.027400 13.466400 -70.422500 11.754300 -0.000000 0.000003 -0.001107 0.184539 -9.090880 -2.192510 6.469440 -0.000001 174.920000 2.977270 -176.664000 -39.081100 -0.002282 -0.040193 0.008919 -0.028232 11.184100 -40.985400 0.000008 0.000006 -7.742150 5.617010 -68.503100 -11.754300 -0.000006 -0.000006 -0.011675 0.283425 -5.055000
